HIERARCHY
ROOT Hips
{
  OFFSET 5.80788e-005 67.184 3.4734
  CHANNELS 6 Xposition Yposition Zposition Zrotation Xrotation Yrotation
  JOINT Chest
  {
    OFFSET 0 8.7983 -4.7612
    CHANNELS 3 Zrotation Xrotation Yrotation
    JOINT Chest2
    {
      OFFSET 0 8.0291 0.4195
      CHANNELS 3 Zrotation Xrotation Yrotation
      JOINT Chest3
      {
        OFFSET 0 9.9351 -2.2114
        CHANNELS 3 Zrotation Xrotation Yrotation
        JOINT Neck
        {
          OFFSET 0 22.3885 -0.4656
          CHANNELS 3 Zrotation Xrotation Yrotation
          JOINT Head
          {
            OFFSET -0.0001 12.643 3.4389
            CHANNELS 3 Zrotation Xrotation Yrotation
            End Site
            {
              OFFSET 0.0001 17.6655 0.5274
            }
          }
        }
        JOINT LeftCollar
        {
          OFFSET 2.2603 21.606 7.4023
          CHANNELS 3 Zrotation Xrotation Yrotation
          JOINT LeftShoulder
          {
            OFFSET 13.5163 -1.1332 -5.0146
            CHANNELS 3 Zrotation Xrotation Yrotation
            JOINT LeftElbow
            {
              OFFSET -0.0995 -28.05 -0.2431
              CHANNELS 3 Zrotation Xrotation Yrotation
              JOINT LeftWrist
              {
                OFFSET 0.0679 -23.3996 -0.1402
                CHANNELS 3 Zrotation Xrotation Yrotation
                JOINT LeftFinger1
                {
                  OFFSET 0.7932 -9.069 2.5189
                  CHANNELS 3 Zrotation Xrotation Yrotation
                  JOINT LeftFinger11
                  {
                    OFFSET -0.8272 -3.3923 0.5977
                    CHANNELS 3 Zrotation Xrotation Yrotation
                    JOINT LeftFinger12
                    {
                      OFFSET -0.5649 -2.3158 0.4082
                      CHANNELS 3 Zrotation Xrotation Yrotation
                      End Site
                      {
                        OFFSET -0.4919 -1.6479 0.2673
                      }
                    }
                  }
                }
                JOINT LeftFinger2
                {
                  OFFSET 0.9159 -9.2044 0.2193
                  CHANNELS 3 Zrotation Xrotation Yrotation
                  JOINT LeftFinger21
                  {
                    OFFSET 0.0117 -4.1944 -0.0248
                    CHANNELS 3 Zrotation Xrotation Yrotation
                    JOINT LeftFinger22
                    {
                      OFFSET 0.0071 -2.3249 -0.0142
                      CHANNELS 3 Zrotation Xrotation Yrotation
                      End Site
                      {
                        OFFSET -0.1475 -2.0882 0.0028
                      }
                    }
                  }
                }
                JOINT LeftFinger3
                {
                  OFFSET 0.6113 -8.7231 -2.0637
                  CHANNELS 3 Zrotation Xrotation Yrotation
                  JOINT LeftFinger31
                  {
                    OFFSET -0.1927 -3.8059 -0.2383
                    CHANNELS 3 Zrotation Xrotation Yrotation
                    JOINT LeftFinger32
                    {
                      OFFSET -0.1091 -2.1688 -0.1362
                      CHANNELS 3 Zrotation Xrotation Yrotation
                      End Site
                      {
                        OFFSET -0.2358 -1.9176 -0.0906
                      }
                    }
                  }
                }
                JOINT LeftFinger4
                {
                  OFFSET -0.6151 -8.0947 -3.5641
                  CHANNELS 3 Zrotation Xrotation Yrotation
                  JOINT LeftFinger41
                  {
                    OFFSET -0.4882 -2.341 -0.6462
                    CHANNELS 3 Zrotation Xrotation Yrotation
                    JOINT LeftFinger42
                    {
                      OFFSET -0.3575 -1.7167 -0.4742
                      CHANNELS 3 Zrotation Xrotation Yrotation
                      End Site
                      {
                        OFFSET -0.4187 -1.5237 -0.3496
                      }
                    }
                  }
                }
                JOINT LeftFinger0
                {
                  OFFSET -1.42 -1.8761 1.4223
                  CHANNELS 3 Zrotation Xrotation Yrotation
                  JOINT LeftFinger01
                  {
                    OFFSET -1.1471 -3.4929 2.6334
                    CHANNELS 3 Zrotation Xrotation Yrotation
                    JOINT LeftFinger02
                    {
                      OFFSET -0.823 -2.3 1.6571
                      CHANNELS 3 Zrotation Xrotation Yrotation
                      End Site
                      {
                        OFFSET -0.5822 -1.6914 1.1582
                      }
                    }
                  }
                }
              }
            }
          }
        }
        JOINT RightCollar
        {
          OFFSET -2.2603 21.606 7.4023
          CHANNELS 3 Zrotation Xrotation Yrotation
          JOINT RightShoulder
          {
            OFFSET -13.5187 -1.1334 -5.0155
            CHANNELS 3 Zrotation Xrotation Yrotation
            JOINT RightElbow
            {
              OFFSET 0.0994 -28.0499 -0.2431
              CHANNELS 3 Zrotation Xrotation Yrotation
              JOINT RightWrist
              {
                OFFSET -0.0679 -23.3996 -0.1402
                CHANNELS 3 Zrotation Xrotation Yrotation
                JOINT RightFinger1
                {
                  OFFSET -0.7932 -9.0691 2.5189
                  CHANNELS 3 Zrotation Xrotation Yrotation
                  JOINT RightFinger11
                  {
                    OFFSET 0.8272 -3.3923 0.5977
                    CHANNELS 3 Zrotation Xrotation Yrotation
                    JOINT RightFinger12
                    {
                      OFFSET 0.565 -2.3158 0.4082
                      CHANNELS 3 Zrotation Xrotation Yrotation
                      End Site
                      {
                        OFFSET 0.4919 -1.6479 0.2673
                      }
                    }
                  }
                }
                JOINT RightFinger2
                {
                  OFFSET -0.916 -9.2044 0.2193
                  CHANNELS 3 Zrotation Xrotation Yrotation
                  JOINT RightFinger21
                  {
                    OFFSET -0.0117 -4.1944 -0.0248
                    CHANNELS 3 Zrotation Xrotation Yrotation
                    JOINT RightFinger22
                    {
                      OFFSET -0.0071 -2.3249 -0.0142
                      CHANNELS 3 Zrotation Xrotation Yrotation
                      End Site
                      {
                        OFFSET 0.1475 -2.0882 0.0028
                      }
                    }
                  }
                }
                JOINT RightFinger3
                {
                  OFFSET -0.6113 -8.7231 -2.0637
                  CHANNELS 3 Zrotation Xrotation Yrotation
                  JOINT RightFinger31
                  {
                    OFFSET 0.1927 -3.8059 -0.2383
                    CHANNELS 3 Zrotation Xrotation Yrotation
                    JOINT RightFinger32
                    {
                      OFFSET 0.1091 -2.1688 -0.1362
                      CHANNELS 3 Zrotation Xrotation Yrotation
                      End Site
                      {
                        OFFSET 0.2358 -1.9176 -0.0906
                      }
                    }
                  }
                }
                JOINT RightFinger4
                {
                  OFFSET 0.6151 -8.0947 -3.564
                  CHANNELS 3 Zrotation Xrotation Yrotation
                  JOINT RightFinger41
                  {
                    OFFSET 0.4882 -2.341 -0.6462
                    CHANNELS 3 Zrotation Xrotation Yrotation
                    JOINT RightFinger42
                    {
                      OFFSET 0.3574 -1.7166 -0.4742
                      CHANNELS 3 Zrotation Xrotation Yrotation
                      End Site
                      {
                        OFFSET 0.4187 -1.5237 -0.3496
                      }
                    }
                  }
                }
                JOINT RightFinger0
                {
                  OFFSET 1.4199 -1.8761 1.4221
                  CHANNELS 3 Zrotation Xrotation Yrotation
                  JOINT RightFinger01
                  {
                    OFFSET 1.1472 -3.4929 2.6336
                    CHANNELS 3 Zrotation Xrotation Yrotation
                    JOINT RightFinger02
                    {
                      OFFSET 0.8229 -2.3 1.6571
                      CHANNELS 3 Zrotation Xrotation Yrotation
                      End Site
                      {
                        OFFSET 0.5822 -1.6914 1.1582
                      }
                    }
                  }
                }
              }
            }
          }
        }
      }
    }
  }
  JOINT RightHip
  {
    OFFSET -9.412 3.9771 -0.7758
    CHANNELS 3 Zrotation Xrotation Yrotation
    JOINT RightKnee
    {
      OFFSET -0.7531 -40.938 0
      CHANNELS 3 Zrotation Xrotation Yrotation
      JOINT RightAnkle
      {
        OFFSET 0 -40.1986 0
        CHANNELS 3 Zrotation Xrotation Yrotation
        JOINT RightToe
        {
          OFFSET 0 -4.4182 9.239
          CHANNELS 3 Zrotation Xrotation Yrotation
          End Site
          {
            OFFSET 0 0 6.1981
          }
        }
      }
    }
  }
  JOINT LeftHip
  {
    OFFSET 9.4119 3.9773 -0.7758
    CHANNELS 3 Zrotation Xrotation Yrotation
    JOINT LeftKnee
    {
      OFFSET 0.7532 -40.9383 0
      CHANNELS 3 Zrotation Xrotation Yrotation
      JOINT LeftAnkle
      {
        OFFSET 0 -40.1986 0
        CHANNELS 3 Zrotation Xrotation Yrotation
        JOINT LeftToe
        {
          OFFSET 0 -4.4182 9.239
          CHANNELS 3 Zrotation Xrotation Yrotation
          End Site
          {
            OFFSET 0 0 6.1981
          }
        }
      }
    }
  }
}
MOTION
Frames:	4
Frame Time:	0.0333333
5.80788e-005 67.184 3.4734 0 0 -0 0 0 -0 0 0 -0 0 0 -0 0 0 -0 0 0 -0 0 0 -12.5014 88.1196 14.2451 10.6914 -0.00160068 -0.00239207 0.000740045 -8.4365e-005 7.00714e-005 -9.52055e-007 9.93923e-017 -1.98785e-016 -1.59028e-015 9.93923e-017 -5.96354e-016 -1.59028e-015 -9.93923e-017 -5.96354e-016 -1.59028e-015 9.93923e-017 -1.98785e-016 -1.59028e-015 -0.0128176 0.00232552 8.52707e-005 9.93923e-017 5.96354e-016 -0 9.93923e-017 -1.98785e-016 -1.59028e-015 -0.0160551 0.00299681 0.000857156 -2.48481e-016 0 3.18055e-015 9.93923e-017 -1.98785e-016 -1.59028e-015 -0.0125865 0.0031206 0.00282719 0 1.98785e-016 -0 9.93923e-017 -1.98785e-016 -1.59028e-015 9.93923e-017 -5.96354e-016 -1.59028e-015 -9.93923e-017 -5.96354e-016 -1.59028e-015 -0.865644 0.16582 7.03859 -88.0329 10.2057 -10.5567 0.0015593 -0.00248883 -0.000788628 7.87605e-005 4.10553e-005 1.24965e-005 -3.97569e-016 -7.95139e-016 3.18055e-015 -1.98785e-016 -3.97569e-016 3.18055e-015 -1.98785e-016 0 3.18055e-015 -3.97569e-016 -7.95139e-016 3.18055e-015 0.0129473 0.00231697 -8.70038e-005 9.93923e-017 -7.95139e-016 1.59028e-015 -3.97569e-016 -7.95139e-016 3.18055e-015 0.0163314 0.00303369 -0.000872333 3.97569e-016 7.95139e-016 -3.18055e-015 -3.97569e-016 -7.95139e-016 3.18055e-015 0.0145763 0.00367772 -0.00326275 9.93923e-017 -3.97569e-016 -0 -3.97569e-016 -7.95139e-016 3.18055e-015 -1.98785e-016 -3.97569e-016 3.18055e-015 -1.98785e-016 0 3.18055e-015 3.42485 1.36937 -0.0640303 0.000136572 0.69354 0.00145564 -3.42573 -2.06297 -0.0607933 -3.19502e-024 0 -1.48106e-024 -3.42498 1.36123 0.0639712 -6.769e-005 0.712612 -0.0012277 3.42582 -2.07388 0.0612819 2.55305e-023 0 -2.31416e-026 
0.00057267 -2.70373 7.69462 -180 -83.3313 -180 -0.102992 5.09207 -0.160289 -0.192765 10.1844 -0.313214 -0.192765 10.1844 -0.313214 -0.0675263 19.2676 0.0117826 0.0116348 9.62105 0.0117389 -9.6931 6.44379 -10.2398 19.8511 -21.5441 15.55 -33.8887 -62.2335 -15.2722 -11.3759 6.19379 -23.2928 4.17448e-015 3.18055e-015 9.93923e-017 2.13694e-015 0 -2.18663e-015 2.93207e-015 6.36111e-015 9.93923e-016 4.17448e-015 3.18055e-015 9.93923e-017 -0.0128603 0.00233592 8.78262e-005 -2.90723e-015 3.18055e-015 1.98785e-015 4.17448e-015 3.18055e-015 9.93923e-017 -0.0160743 0.00299821 0.000857799 -4.02539e-015 -9.54166e-015 -5.96354e-016 4.17448e-015 3.18055e-015 9.93923e-017 -0.0125866 0.00312479 0.00282655 1.49089e-016 1.90833e-014 -1.09332e-015 4.17448e-015 3.18055e-015 9.93923e-017 2.13694e-015 0 -2.18663e-015 2.93207e-015 6.36111e-015 9.93923e-016 8.83431 6.53843 4.97408 -17.6921 -22.1084 -10.1146 33.5076 -62.6792 14.3761 10.7955 6.3123 24.2603 9.54166e-015 3.18055e-015 -0 3.77691e-015 6.36111e-015 -4.77083e-015 5.96354e-016 -3.18055e-015 -7.95139e-016 9.54166e-015 3.18055e-015 -0 0.0129314 0.00231077 -8.82651e-005 -1.39149e-015 3.18055e-015 -3.97569e-016 9.54166e-015 3.18055e-015 -0 0.0163317 0.00303762 -0.000874629 4.17448e-015 0 -2.38542e-015 9.54166e-015 3.18055e-015 -0 0.0145695 0.00368526 -0.00326108 -5.26534e-006 -4.57376e-006 -3.12998e-006 9.54166e-015 3.18055e-015 -0 3.77691e-015 6.36111e-015 -4.77083e-015 5.96354e-016 -3.18055e-015 -7.95139e-016 5.36337 0.384152 8.02098 -2.77121 14.5027 0.437468 -3.6226 11.6374 -11.2259 4.37072e-007 -3.85171e-009 3.34564e-008 -5.28902 0.648596 -11.3786 2.01343 14.173 -0.236512 3.2578 11.4903 14.4422 -8.085e-007 -7.69309e-009 -2.60446e-007 
0.000415393 2.06219 8.14514 -179.997 -89.9981 -179.997 -0.0969952 4.86645 -0.148924 -0.182234 9.7331 -0.291129 -0.182234 9.73317 -0.291129 -0.431805 17.6079 0.0742109 0.0758566 8.75654 0.0753958 -9.03027 5.52962 -10.7505 24.7183 -18.604 15.7212 -28.7435 -58.1353 -11.396 -10.9452 4.5213 -21.7574 -5.20888e-007 -2.53091e-007 6.76285e-007 -6.85807e-015 3.18055e-015 -3.18055e-015 1.52991e-007 -5.32546e-007 2.25378e-006 -5.20888e-007 -2.53091e-007 6.76285e-007 -0.0128083 0.00233373 8.99816e-005 -1.04184e-006 -2.53108e-007 1.35253e-006 -5.20888e-007 -2.53091e-007 6.76285e-007 -0.0160308 0.00300161 0.000863167 2.5842e-015 -3.18055e-015 7.95139e-016 -5.20888e-007 -2.53091e-007 6.76285e-007 -0.0125823 0.00313144 0.00283305 1.86815e-006 -1.35375e-006 2.4789e-006 -5.20888e-007 -2.53091e-007 6.76285e-007 -6.85807e-015 3.18055e-015 -3.18055e-015 1.52991e-007 -5.32546e-007 2.25378e-006 8.43267 5.78893 5.62147 -22.95 -19.6291 -10.5984 28.2113 -58.4701 10.3995 10.2845 4.50137 22.8308 -6.12929e-006 5.64549e-007 -4.80642e-006 6.12929e-006 -5.64549e-007 4.80643e-006 -2.78299e-015 -9.54166e-015 3.57812e-015 -6.12929e-006 5.64549e-007 -4.80642e-006 0.012955 0.00231232 -8.22313e-005 -5.53718e-007 4.91704e-006 -1.78811e-006 -6.12929e-006 5.64549e-007 -4.80642e-006 0.0163239 0.00303586 -0.00087406 -3.57812e-015 9.54166e-015 -6.36111e-015 -6.12929e-006 5.64549e-007 -4.80642e-006 0.0145911 0.00368425 -0.00326168 4.37326e-015 3.18055e-015 -7.95139e-016 -6.12929e-006 5.64549e-007 -4.80642e-006 6.12929e-006 -5.64549e-007 4.80643e-006 -2.78299e-015 -9.54166e-015 3.57812e-015 5.20513 0.470431 7.46314 -2.56402 13.4983 0.395445 -3.80595 10.762 -10.4056 -8.37251e-009 2.56671e-005 -1.58069e-007 -5.13873 0.695856 -10.5899 1.86323 13.2523 -0.207714 3.4271 10.834 13.0625 -1.00316e-006 -5.41396e-008 -8.95426e-007 
0.00041541 2.06219 8.14514 179.997 -89.9981 179.997 -0.0974614 4.98445 -0.14884 -0.182912 9.96912 -0.290793 -0.182913 9.96915 -0.290794 -0.776508 17.2977 0.131314 0.13676 8.56854 0.135932 -9.05347 5.08955 -11.0807 25.1805 -18.5069 15.9331 -28.196 -58.0747 -10.9191 -11.273 3.34447 -21.8235 3.97569e-016 -6.36111e-015 1.98785e-016 5.1684e-015 0 -5.56597e-015 -2.18663e-015 3.18055e-015 -5.96354e-016 3.97569e-016 -6.36111e-015 1.98785e-016 -0.0127939 0.00232966 9.28395e-005 9.93923e-015 3.18055e-015 2.18663e-015 3.97569e-016 -6.36111e-015 1.98785e-016 -0.0160688 0.00300352 0.000862403 7.95139e-016 0 -4.37326e-015 3.97569e-016 -6.36111e-015 1.98785e-016 -0.0125642 0.00311188 0.00282493 -5.96354e-016 -9.54166e-015 -1.78906e-015 3.97569e-016 -6.36111e-015 1.98785e-016 5.1684e-015 0 -5.56597e-015 -2.18663e-015 3.18055e-015 -5.96354e-016 8.69926 5.50062 6.09371 -23.4811 -19.5924 -10.864 27.5008 -58.342 9.77396 10.5083 3.19877 23.0601 3.97569e-015 0 -2.38542e-015 -3.97569e-015 0 -3.57812e-015 -7.95139e-016 0 -0 3.97569e-015 0 -2.38542e-015 0.0129792 0.00231853 -8.42282e-005 2.38542e-015 1.27222e-014 -5.1684e-015 3.97569e-015 0 -2.38542e-015 0.0163505 0.00303673 -0.000872483 3.97569e-016 3.18055e-015 -6.36111e-015 3.97569e-015 0 -2.38542e-015 0.0145756 0.0036782 -0.00326255 -2.38542e-015 3.18055e-015 -7.95139e-015 3.97569e-015 0 -2.38542e-015 -3.97569e-015 0 -3.57812e-015 -7.95139e-016 0 -0 5.20513 0.470431 7.46314 -2.56402 13.4983 0.395445 -3.80595 10.762 -10.4056 -8.37251e-009 2.56671e-005 -1.58069e-007 -5.14614 0.677517 -10.5897 1.86345 13.3079 -0.205522 3.34482 11.0099 12.7544 -6.45343e-007 2.29964e-008 4.17687e-007 
